<?xml version="1.0" encoding="UTF-8"?>
<svg xmlns="http://www.w3.org/2000/svg" width="2000" height="500" viewBox="0 0 2000 500" role="img" aria-labelledby="title desc">
  <title id="title">Kaptsure Logo</title>
  <desc id="desc">Vectorized Kaptsure logo with black wordmark and green aperture mark.</desc>
  <g fill-rule="evenodd">
    <path fill="#050707" d="M 1856.0 153.0 L 1830.0 160.0 L 1816.0 167.0 L 1801.0 178.0 L 1785.0 196.0 L 1774.0 216.0 L 1768.0 236.0 L 1766.0 251.0 L 1767.0 276.0 L 1771.0 293.0 L 1778.0 310.0 L 1790.0 328.0 L 1804.0 342.0 L 1822.0 354.0 L 1842.0 362.0 L 1861.0 366.0 L 1886.0 366.0 L 1901.0 363.0 L 1915.0 358.0 L 1938.0 345.0 L 1961.0 322.0 L 1973.0 300.0 L 1919.0 300.0 L 1909.0 310.0 L 1894.0 318.0 L 1880.0 321.0 L 1862.0 320.0 L 1850.0 316.0 L 1838.0 308.0 L 1827.0 295.0 L 1820.0 278.0 L 1979.0 277.0 L 1980.0 246.0 L 1974.0 222.0 L 1965.0 203.0 L 1955.0 189.0 L 1942.0 176.0 L 1924.0 164.0 L 1903.0 156.0 L 1880.0 152.0 Z M 1821.0 235.0 L 1826.0 224.0 L 1832.0 216.0 L 1847.0 204.0 L 1865.0 198.0 L 1883.0 198.0 L 1894.0 201.0 L 1906.0 208.0 L 1917.0 221.0 L 1923.0 236.0 L 1822.0 237.0 Z
M 1773.0 152.0 L 1751.0 153.0 L 1727.0 159.0 L 1710.0 169.0 L 1700.0 180.0 L 1699.0 152.0 L 1646.0 153.0 L 1646.0 366.0 L 1699.0 366.0 L 1699.0 251.0 L 1703.0 235.0 L 1712.0 220.0 L 1727.0 207.0 L 1739.0 201.0 L 1749.0 198.0 L 1773.0 196.0 Z
M 1434.0 152.0 L 1434.0 294.0 L 1439.0 318.0 L 1450.0 338.0 L 1469.0 355.0 L 1484.0 362.0 L 1501.0 366.0 L 1524.0 366.0 L 1544.0 361.0 L 1564.0 350.0 L 1574.0 340.0 L 1575.0 366.0 L 1627.0 366.0 L 1627.0 152.0 L 1575.0 152.0 L 1575.0 290.0 L 1568.0 304.0 L 1559.0 313.0 L 1549.0 319.0 L 1535.0 323.0 L 1520.0 323.0 L 1504.0 317.0 L 1495.0 309.0 L 1487.0 295.0 L 1485.0 286.0 L 1485.0 152.0 Z
M 1312.0 154.0 L 1295.0 159.0 L 1283.0 165.0 L 1276.0 170.0 L 1263.0 184.0 L 1257.0 196.0 L 1254.0 208.0 L 1254.0 226.0 L 1257.0 237.0 L 1262.0 246.0 L 1279.0 261.0 L 1296.0 269.0 L 1318.0 276.0 L 1344.0 282.0 L 1363.0 290.0 L 1371.0 300.0 L 1370.0 310.0 L 1362.0 318.0 L 1358.0 320.0 L 1344.0 323.0 L 1332.0 323.0 L 1317.0 321.0 L 1297.0 315.0 L 1268.0 299.0 L 1244.0 335.0 L 1258.0 345.0 L 1276.0 354.0 L 1305.0 363.0 L 1323.0 366.0 L 1353.0 366.0 L 1373.0 362.0 L 1384.0 358.0 L 1398.0 350.0 L 1409.0 340.0 L 1414.0 333.0 L 1421.0 317.0 L 1423.0 304.0 L 1422.0 290.0 L 1419.0 280.0 L 1413.0 269.0 L 1396.0 254.0 L 1377.0 245.0 L 1322.0 229.0 L 1312.0 224.0 L 1307.0 219.0 L 1306.0 209.0 L 1310.0 203.0 L 1319.0 198.0 L 1329.0 196.0 L 1342.0 196.0 L 1369.0 202.0 L 1396.0 215.0 L 1418.0 178.0 L 1413.0 174.0 L 1393.0 164.0 L 1364.0 155.0 L 1343.0 152.0 L 1327.0 152.0 Z
M 1040.0 164.0 L 1014.0 157.0 L 977.0 157.0 L 957.0 162.0 L 938.0 171.0 L 918.0 187.0 L 917.0 152.0 L 860.0 152.0 L 859.0 455.0 L 917.0 455.0 L 918.0 335.0 L 930.0 346.0 L 953.0 359.0 L 981.0 366.0 L 1010.0 366.0 L 1030.0 362.0 L 1055.0 351.0 L 1073.0 337.0 L 1088.0 318.0 L 1095.0 304.0 L 1102.0 278.0 L 1103.0 254.0 L 1099.0 230.0 L 1090.0 208.0 L 1079.0 192.0 L 1063.0 177.0 Z M 982.0 203.0 L 1004.0 203.0 L 1015.0 206.0 L 1027.0 212.0 L 1043.0 227.0 L 1051.0 242.0 L 1053.0 250.0 L 1053.0 275.0 L 1050.0 285.0 L 1042.0 299.0 L 1025.0 314.0 L 1015.0 319.0 L 1004.0 322.0 L 982.0 322.0 L 971.0 319.0 L 955.0 310.0 L 946.0 301.0 L 940.0 292.0 L 933.0 271.0 L 934.0 249.0 L 943.0 229.0 L 957.0 214.0 L 969.0 207.0 Z
M 669.0 174.0 L 687.0 210.0 L 712.0 200.0 L 734.0 195.0 L 757.0 195.0 L 769.0 198.0 L 777.0 202.0 L 787.0 211.0 L 793.0 222.0 L 795.0 229.0 L 795.0 241.0 L 794.0 242.0 L 784.0 238.0 L 760.0 233.0 L 726.0 232.0 L 706.0 236.0 L 692.0 241.0 L 681.0 247.0 L 673.0 253.0 L 661.0 266.0 L 654.0 279.0 L 651.0 290.0 L 651.0 312.0 L 654.0 323.0 L 663.0 339.0 L 680.0 354.0 L 692.0 360.0 L 714.0 366.0 L 738.0 367.0 L 759.0 363.0 L 776.0 356.0 L 794.0 343.0 L 796.0 351.0 L 796.0 367.0 L 847.0 367.0 L 847.0 225.0 L 840.0 200.0 L 828.0 181.0 L 816.0 170.0 L 801.0 161.0 L 779.0 154.0 L 763.0 152.0 L 747.0 152.0 L 719.0 156.0 L 692.0 164.0 Z M 703.0 295.0 L 707.0 285.0 L 715.0 277.0 L 724.0 272.0 L 734.0 269.0 L 752.0 268.0 L 773.0 270.0 L 791.0 274.0 L 795.0 277.0 L 795.0 297.0 L 789.0 308.0 L 776.0 319.0 L 768.0 323.0 L 753.0 327.0 L 732.0 327.0 L 716.0 321.0 L 706.0 311.0 L 703.0 302.0 Z
M 462.0 74.0 L 462.0 367.0 L 514.0 367.0 L 514.0 317.0 L 541.0 290.0 L 544.0 292.0 L 600.0 367.0 L 661.0 367.0 L 579.0 259.0 L 578.0 255.0 L 676.0 152.0 L 615.0 152.0 L 515.0 256.0 L 514.0 74.0 Z
M 1122.0 72.0 L 1122.0 151.0 L 1091.0 152.0 L 1091.0 196.0 L 1122.0 197.0 L 1122.0 313.0 L 1124.0 323.0 L 1132.0 341.0 L 1143.0 353.0 L 1150.0 358.0 L 1164.0 364.0 L 1182.0 367.0 L 1205.0 364.0 L 1224.0 356.0 L 1233.0 348.0 L 1217.0 313.0 L 1204.0 321.0 L 1193.0 322.0 L 1185.0 319.0 L 1177.0 310.0 L 1175.0 302.0 L 1175.0 197.0 L 1224.0 196.0 L 1224.0 152.0 L 1175.0 151.0 L 1175.0 72.0 Z
M 214.0 36.0 L 175.0 41.0 L 133.0 55.0 L 100.0 74.0 L 80.0 90.0 L 65.0 105.0 L 40.0 139.0 L 24.0 173.0 L 16.0 201.0 L 13.0 218.0 L 12.0 263.0 L 14.0 279.0 L 20.0 305.0 L 32.0 336.0 L 52.0 369.0 L 65.0 385.0 L 80.0 400.0 L 109.0 422.0 L 145.0 440.0 L 163.0 446.0 L 185.0 451.0 L 227.0 454.0 L 266.0 449.0 L 303.0 437.0 L 325.0 426.0 L 342.0 415.0 L 369.0 392.0 L 384.0 375.0 L 398.0 355.0 L 415.0 321.0 L 422.0 300.0 L 427.0 276.0 L 429.0 257.0 L 429.0 233.0 L 424.0 198.0 L 418.0 177.0 L 410.0 157.0 L 390.0 123.0 L 367.0 96.0 L 350.0 81.0 L 330.0 67.0 L 293.0 49.0 L 256.0 39.0 Z M 235.0 285.0 L 248.0 325.0 L 254.0 355.0 L 255.0 388.0 L 252.0 400.0 L 244.0 411.0 L 239.0 414.0 L 231.0 416.0 L 209.0 416.0 L 184.0 413.0 L 184.0 411.0 L 207.0 408.0 L 220.0 402.0 L 230.0 393.0 L 239.0 377.0 L 243.0 359.0 L 243.0 331.0 L 239.0 306.0 L 234.0 289.0 Z M 254.0 281.0 L 274.0 304.0 L 297.0 338.0 L 307.0 360.0 L 309.0 368.0 L 309.0 381.0 L 304.0 391.0 L 298.0 396.0 L 281.0 404.0 L 252.0 412.0 L 252.0 410.0 L 269.0 401.0 L 279.0 391.0 L 285.0 381.0 L 288.0 370.0 L 288.0 352.0 L 281.0 328.0 L 269.0 305.0 L 253.0 283.0 Z M 202.0 282.0 L 184.0 317.0 L 165.0 346.0 L 147.0 366.0 L 132.0 376.0 L 126.0 378.0 L 118.0 378.0 L 109.0 374.0 L 96.0 362.0 L 76.0 337.0 L 77.0 335.0 L 84.0 342.0 L 96.0 350.0 L 111.0 355.0 L 124.0 355.0 L 138.0 351.0 L 153.0 342.0 L 171.0 325.0 L 185.0 307.0 L 201.0 281.0 Z M 217.0 280.0 L 218.0 290.0 L 216.0 312.0 L 210.0 349.0 L 203.0 374.0 L 192.0 395.0 L 179.0 406.0 L 166.0 407.0 L 154.0 403.0 L 124.0 387.0 L 122.0 385.0 L 123.0 384.0 L 141.0 389.0 L 162.0 388.0 L 178.0 380.0 L 189.0 369.0 L 201.0 348.0 L 207.0 332.0 L 214.0 302.0 Z M 249.0 277.0 L 250.0 276.0 L 254.0 281.0 L 253.0 282.0 Z M 188.0 272.0 L 167.0 290.0 L 131.0 315.0 L 109.0 326.0 L 89.0 331.0 L 77.0 329.0 L 68.0 322.0 L 60.0 306.0 L 52.0 277.0 L 53.0 272.0 L 63.0 291.0 L 76.0 303.0 L 87.0 308.0 L 104.0 310.0 L 122.0 307.0 L 143.0 299.0 L 166.0 286.0 L 186.0 271.0 Z M 265.0 265.0 L 291.0 278.0 L 324.0 300.0 L 345.0 320.0 L 352.0 331.0 L 354.0 338.0 L 354.0 346.0 L 351.0 353.0 L 331.0 374.0 L 314.0 387.0 L 313.0 385.0 L 324.0 372.0 L 331.0 354.0 L 331.0 338.0 L 327.0 325.0 L 318.0 310.0 L 301.0 292.0 L 283.0 278.0 L 264.0 266.0 Z M 262.0 247.0 L 276.0 246.0 L 325.0 253.0 L 353.0 261.0 L 373.0 272.0 L 381.0 281.0 L 384.0 289.0 L 384.0 294.0 L 378.0 312.0 L 361.0 342.0 L 360.0 339.0 L 364.0 329.0 L 366.0 318.0 L 365.0 303.0 L 361.0 292.0 L 350.0 278.0 L 338.0 269.0 L 319.0 260.0 L 292.0 252.0 Z M 218.0 218.0 L 228.0 219.0 L 236.0 223.0 L 244.0 231.0 L 248.0 242.0 L 247.0 253.0 L 244.0 259.0 L 233.0 269.0 L 222.0 272.0 L 213.0 271.0 L 203.0 266.0 L 198.0 261.0 L 193.0 251.0 L 193.0 239.0 L 198.0 229.0 L 206.0 222.0 Z M 256.0 212.0 L 257.0 213.0 L 252.0 217.0 L 251.0 216.0 Z M 388.0 279.0 L 386.0 279.0 L 383.0 257.0 L 377.0 244.0 L 368.0 234.0 L 351.0 225.0 L 329.0 221.0 L 314.0 221.0 L 280.0 226.0 L 260.0 232.0 L 256.0 231.0 L 291.0 219.0 L 332.0 210.0 L 363.0 209.0 L 375.0 212.0 L 386.0 220.0 L 389.0 225.0 L 391.0 233.0 L 391.0 255.0 Z M 54.0 204.0 L 56.0 204.0 L 56.0 216.0 L 58.0 227.0 L 64.0 241.0 L 76.0 254.0 L 87.0 260.0 L 107.0 265.0 L 139.0 265.0 L 164.0 261.0 L 181.0 256.0 L 185.0 257.0 L 158.0 266.0 L 111.0 276.0 L 81.0 277.0 L 65.0 273.0 L 54.0 264.0 L 50.0 252.0 L 50.0 234.0 Z M 389.0 210.0 L 388.0 214.0 L 378.0 196.0 L 362.0 182.0 L 347.0 177.0 L 330.0 177.0 L 316.0 180.0 L 296.0 188.0 L 280.0 197.0 L 258.0 213.0 L 256.0 212.0 L 279.0 192.0 L 306.0 173.0 L 326.0 162.0 L 344.0 156.0 L 361.0 157.0 L 372.0 166.0 L 382.0 187.0 Z M 81.0 146.0 L 82.0 149.0 L 79.0 155.0 L 76.0 169.0 L 77.0 186.0 L 85.0 203.0 L 96.0 214.0 L 119.0 227.0 L 136.0 233.0 L 161.0 239.0 L 182.0 242.0 L 159.0 242.0 L 115.0 235.0 L 88.0 227.0 L 70.0 217.0 L 62.0 209.0 L 59.0 203.0 L 58.0 194.0 L 64.0 176.0 Z M 361.0 147.0 L 360.0 149.0 L 345.0 138.0 L 327.0 132.0 L 315.0 132.0 L 301.0 136.0 L 286.0 145.0 L 270.0 160.0 L 258.0 175.0 L 240.0 204.0 L 239.0 203.0 L 255.0 170.0 L 272.0 143.0 L 291.0 121.0 L 306.0 111.0 L 318.0 109.0 L 328.0 113.0 L 352.0 136.0 Z M 129.0 99.0 L 131.0 100.0 L 118.0 115.0 L 111.0 131.0 L 110.0 147.0 L 113.0 159.0 L 126.0 181.0 L 146.0 201.0 L 179.0 224.0 L 178.0 225.0 L 145.0 207.0 L 119.0 189.0 L 97.0 168.0 L 89.0 155.0 L 87.0 141.0 L 90.0 134.0 L 107.0 116.0 Z M 312.0 102.0 L 314.0 104.0 L 313.0 105.0 L 297.0 100.0 L 277.0 100.0 L 260.0 107.0 L 248.0 118.0 L 237.0 136.0 L 230.0 155.0 L 224.0 182.0 L 221.0 210.0 L 221.0 174.0 L 227.0 133.0 L 235.0 107.0 L 245.0 91.0 L 257.0 83.0 L 268.0 83.0 L 286.0 89.0 Z M 188.0 78.0 L 192.0 79.0 L 173.0 89.0 L 161.0 101.0 L 154.0 118.0 L 153.0 134.0 L 155.0 146.0 L 162.0 166.0 L 173.0 187.0 L 191.0 212.0 L 190.0 214.0 L 172.0 193.0 L 152.0 165.0 L 137.0 137.0 L 132.0 118.0 L 134.0 104.0 L 138.0 98.0 L 143.0 94.0 L 160.0 86.0 Z M 254.0 79.0 L 254.0 81.0 L 238.0 82.0 L 219.0 89.0 L 206.0 101.0 L 199.0 114.0 L 195.0 132.0 L 195.0 157.0 L 199.0 182.0 L 206.0 205.0 L 205.0 209.0 L 193.0 176.0 L 184.0 139.0 L 182.0 124.0 L 182.0 105.0 L 185.0 93.0 L 188.0 87.0 L 194.0 81.0 L 204.0 77.0 L 224.0 76.0 Z"/>
    <path fill="#8ECE8A" d="M 254.0 371.0 L 247.0 373.0 L 242.0 373.0 L 241.0 371.0 L 242.0 373.0 L 240.0 375.0 L 238.0 382.0 L 234.0 389.0 L 220.0 403.0 L 207.0 409.0 L 199.0 411.0 L 184.0 412.0 L 208.0 414.0 L 209.0 415.0 L 230.0 415.0 L 241.0 412.0 L 248.0 405.0 L 252.0 397.0 L 254.0 388.0 Z
M 202.0 373.0 L 201.0 374.0 L 190.0 372.0 L 189.0 370.0 L 178.0 381.0 L 172.0 385.0 L 158.0 390.0 L 140.0 390.0 L 131.0 388.0 L 121.0 384.0 L 152.0 401.0 L 167.0 406.0 L 175.0 406.0 L 184.0 402.0 L 190.0 396.0 L 196.0 387.0 Z
M 301.0 348.0 L 289.0 356.0 L 289.0 371.0 L 286.0 381.0 L 281.0 390.0 L 269.0 402.0 L 256.0 410.0 L 252.0 411.0 L 262.0 409.0 L 288.0 400.0 L 299.0 394.0 L 305.0 388.0 L 308.0 380.0 L 308.0 369.0 Z
M 77.0 336.0 L 91.0 355.0 L 108.0 372.0 L 118.0 377.0 L 125.0 377.0 L 136.0 373.0 L 148.0 364.0 L 154.0 357.0 L 147.0 353.0 L 143.0 349.0 L 136.0 353.0 L 125.0 356.0 L 106.0 355.0 L 94.0 350.0 L 85.0 344.0 Z
M 329.0 305.0 L 333.0 309.0 L 333.0 311.0 L 326.0 321.0 L 325.0 320.0 L 329.0 327.0 L 332.0 337.0 L 332.0 354.0 L 330.0 362.0 L 325.0 372.0 L 313.0 387.0 L 332.0 372.0 L 347.0 357.0 L 351.0 351.0 L 353.0 345.0 L 353.0 338.0 L 348.0 326.0 L 343.0 319.0 Z
M 52.0 271.0 L 57.0 293.0 L 64.0 313.0 L 69.0 322.0 L 75.0 327.0 L 86.0 330.0 L 96.0 329.0 L 109.0 325.0 L 123.0 318.0 L 116.0 322.0 L 108.0 311.0 L 110.0 310.0 L 105.0 310.0 L 104.0 311.0 L 91.0 310.0 L 79.0 306.0 L 73.0 302.0 L 62.0 291.0 L 58.0 285.0 Z
M 349.0 261.0 L 348.0 273.0 L 347.0 274.0 L 345.0 273.0 L 356.0 283.0 L 361.0 290.0 L 364.0 296.0 L 367.0 308.0 L 366.0 325.0 L 361.0 340.0 L 376.0 314.0 L 382.0 298.0 L 383.0 289.0 L 380.0 281.0 L 374.0 274.0 L 362.0 266.0 Z
M 341.0 210.0 L 346.0 211.0 L 349.0 224.0 L 354.0 225.0 L 364.0 230.0 L 376.0 241.0 L 385.0 260.0 L 387.0 279.0 L 389.0 255.0 L 390.0 254.0 L 390.0 234.0 L 387.0 223.0 L 379.0 215.0 L 372.0 212.0 L 362.0 210.0 Z
M 55.0 205.0 L 53.0 223.0 L 52.0 224.0 L 52.0 234.0 L 51.0 235.0 L 51.0 252.0 L 55.0 264.0 L 63.0 271.0 L 71.0 274.0 L 81.0 276.0 L 101.0 276.0 L 95.0 276.0 L 93.0 274.0 L 92.0 264.0 L 91.0 263.0 L 92.0 262.0 L 87.0 261.0 L 76.0 255.0 L 64.0 243.0 L 59.0 233.0 L 56.0 223.0 Z
M 317.0 168.0 L 323.0 165.0 L 331.0 176.0 L 352.0 177.0 L 367.0 184.0 L 380.0 197.0 L 388.0 212.0 L 386.0 203.0 L 375.0 173.0 L 370.0 165.0 L 365.0 160.0 L 357.0 157.0 L 345.0 157.0 L 331.0 161.0 Z
M 81.0 147.0 L 63.0 181.0 L 60.0 190.0 L 59.0 199.0 L 62.0 207.0 L 70.0 216.0 L 76.0 220.0 L 92.0 227.0 L 92.0 221.0 L 95.0 214.0 L 82.0 200.0 L 77.0 190.0 L 75.0 181.0 L 76.0 162.0 Z
M 280.0 134.0 L 283.0 131.0 L 292.0 136.0 L 294.0 139.0 L 291.0 141.0 L 306.0 133.0 L 314.0 131.0 L 328.0 131.0 L 339.0 134.0 L 347.0 138.0 L 362.0 150.0 L 350.0 135.0 L 332.0 117.0 L 328.0 114.0 L 318.0 110.0 L 309.0 111.0 L 302.0 114.0 L 296.0 118.0 Z
M 130.0 100.0 L 106.0 118.0 L 91.0 134.0 L 88.0 142.0 L 89.0 152.0 L 93.0 161.0 L 98.0 168.0 L 113.0 183.0 L 109.0 178.0 L 116.0 168.0 L 118.0 170.0 L 114.0 164.0 L 110.0 153.0 L 110.0 148.0 L 109.0 147.0 L 110.0 131.0 L 113.0 122.0 L 118.0 113.0 Z
M 233.0 116.0 L 246.0 117.0 L 247.0 119.0 L 245.0 121.0 L 257.0 108.0 L 267.0 102.0 L 277.0 99.0 L 297.0 99.0 L 311.0 103.0 L 278.0 87.0 L 268.0 84.0 L 258.0 84.0 L 251.0 87.0 L 243.0 95.0 L 236.0 107.0 Z
M 190.0 79.0 L 173.0 83.0 L 153.0 90.0 L 143.0 95.0 L 137.0 101.0 L 134.0 107.0 L 133.0 117.0 L 136.0 131.0 L 141.0 143.0 L 142.0 141.0 L 152.0 134.0 L 153.0 138.0 L 152.0 134.0 L 153.0 117.0 L 156.0 108.0 L 163.0 97.0 L 173.0 88.0 Z
M 253.0 80.0 L 239.0 79.0 L 238.0 78.0 L 214.0 77.0 L 213.0 78.0 L 204.0 78.0 L 194.0 82.0 L 188.0 89.0 L 185.0 96.0 L 183.0 106.0 L 183.0 124.0 L 184.0 120.0 L 197.0 117.0 L 204.0 102.0 L 212.0 93.0 L 219.0 88.0 L 233.0 82.0 L 243.0 81.0 L 244.0 80.0 Z"/>
  </g>
</svg>
